<svg xmlns="http://www.w3.org/2000/svg" width="435.69" height="208.991" viewBox="0 0 115.276 55.296">
  <path d="M102.525 14.674q0-.796.388-1.119.387-.322.925-.322.56 0 .946.322.41.323.41 1.12 0 .774-.41 1.118-.387.344-.946.344-.538 0-.925-.344-.388-.344-.388-1.119zM41.795 0v35.915q0 8.95-5.618 14.156-5.58 5.205-15.28 5.205-9.55 0-15.167-5.055Q.112 45.165 0 36.327V0h11.235v35.99q0 5.355 2.547 7.827 2.584 2.434 7.115 2.434 9.475 0 9.625-9.962V0Zm55.52.185q8.749 0 13.316 4.8 4.645 4.8 4.645 12.774V38.97q0 15.484-16.412 15.484H82.76V.185Zm.465 51.096q5.961 0 9.987-2.323 4.026-2.4 4.026-9.754V17.372q0-4.8-2.013-7.897-1.936-3.174-5.11-4.568-3.097-1.47-6.58-1.47H86.245V51.28ZM72.843 3.27 59.527 22.393h1.161q4.49 0 8.284 2.245 3.793 2.168 5.96 5.961 2.246 3.716 2.246 8.207 0 4.49-2.245 8.283-2.168 3.794-5.961 6.039-3.794 2.168-8.284 2.168-4.18 0-7.82-1.936-3.638-2.013-5.883-5.42l2.942-1.857q1.78 2.632 4.568 4.18 2.864 1.549 6.193 1.549 3.716 0 6.658-1.78 2.942-1.859 4.645-4.8 1.703-3.02 1.703-6.426 0-3.64-1.78-6.504-1.704-2.941-4.645-4.645-2.865-1.703-6.117-1.858h-7.974L68.585 3.658H50.624V.174h22.219z"/>
</svg>
